<?xml version="1.0" encoding="UTF-8"?>
<svg xmlns="http://www.w3.org/2000/svg"
     width="480" height="62" viewBox="0 0 480 62"
     preserveAspectRatio="xMidYMid meet"
     role="img" aria-labelledby="title description"
     shape-rendering="geometricPrecision">
  <title id="title">Vida de Testigo Acusador para mobile portrait</title>
  <desc id="description">Barra corta sin nombre, con vida roja, daño negro y destello amarillo.</desc>

  <metadata>
    Barra útil: x=43, y=20, width=394, height=25.
    Actualizar boss-health-fill entre 0 y 394.
    Configurar x/width de boss-damage-flash y ejecutar boss-damage-flash-animation.beginElement().
  </metadata>

  <defs>
    <linearGradient id="copper" x1="0" y1="0" x2="1" y2="1">
      <stop offset="0" stop-color="#090403"/>
      <stop offset=".22" stop-color="#351a13"/>
      <stop offset=".45" stop-color="#82502f"/>
      <stop offset=".55" stop-color="#b87342"/>
      <stop offset=".68" stop-color="#4f281d"/>
      <stop offset="1" stop-color="#080302"/>
    </linearGradient>
    <linearGradient id="forged" x1="0" y1="0" x2="0" y2="1">
      <stop offset="0" stop-color="#633a25"/>
      <stop offset=".25" stop-color="#3c2017"/>
      <stop offset=".48" stop-color="#160a08"/>
      <stop offset=".76" stop-color="#0b0504"/>
      <stop offset="1" stop-color="#48241a"/>
    </linearGradient>
    <linearGradient id="health-red" x1="0" y1="0" x2="0" y2="1">
      <stop offset="0" stop-color="#f14b3e"/>
      <stop offset=".18" stop-color="#c91d18"/>
      <stop offset=".56" stop-color="#870607"/>
      <stop offset=".86" stop-color="#410204"/>
      <stop offset="1" stop-color="#160102"/>
    </linearGradient>
    <linearGradient id="health-gloss" x1="0" y1="0" x2="0" y2="1">
      <stop offset="0" stop-color="#ffd1ad" stop-opacity=".54"/>
      <stop offset=".29" stop-color="#ff765e" stop-opacity=".12"/>
      <stop offset=".58" stop-color="#360003" stop-opacity=".03"/>
      <stop offset="1" stop-color="#100001" stop-opacity=".70"/>
    </linearGradient>
    <linearGradient id="damage-black" x1="0" y1="0" x2="0" y2="1">
      <stop offset="0" stop-color="#130c0a"/>
      <stop offset=".44" stop-color="#050505"/>
      <stop offset="1" stop-color="#000"/>
    </linearGradient>
    <linearGradient id="hit-yellow" x1="0" y1="0" x2="1" y2="0">
      <stop offset="0" stop-color="#ff9209"/>
      <stop offset=".34" stop-color="#fff2a0"/>
      <stop offset=".64" stop-color="#ffdc43"/>
      <stop offset="1" stop-color="#ff7e07"/>
    </linearGradient>
    <radialGradient id="marker-gem" cx="36%" cy="30%" r="72%">
      <stop offset="0" stop-color="#fff1be"/>
      <stop offset=".18" stop-color="#ff654e"/>
      <stop offset=".50" stop-color="#ad0b11"/>
      <stop offset=".82" stop-color="#410207"/>
      <stop offset="1" stop-color="#120002"/>
    </radialGradient>

    <clipPath id="boss-health-window">
      <rect x="43" y="20" width="394" height="25" rx="9"/>
    </clipPath>
    <clipPath id="boss-current-health-window">
      <rect id="boss-health-fill" x="43" y="20" width="276" height="25" rx="9"/>
    </clipPath>

    <filter id="frame-shadow" x="-13%" y="-100%" width="126%" height="300%">
      <feGaussianBlur in="SourceAlpha" stdDeviation="3" result="blur"/>
      <feOffset dy="3.5" result="offset"/>
      <feColorMatrix in="offset" values="0 0 0 0 0 0 0 0 0 0 0 0 0 0 0 0 0 0 .90 0"/>
      <feMerge><feMergeNode/><feMergeNode in="SourceGraphic"/></feMerge>
    </filter>
    <filter id="red-glow" x="-20%" y="-140%" width="140%" height="380%">
      <feGaussianBlur stdDeviation="3" result="blur"/>
      <feFlood flood-color="#d40b14" flood-opacity=".48" result="color"/>
      <feComposite in="color" in2="blur" operator="in" result="glow"/>
      <feMerge><feMergeNode in="glow"/><feMergeNode in="SourceGraphic"/></feMerge>
    </filter>
    <filter id="hit-glow" x="-60%" y="-180%" width="220%" height="460%">
      <feGaussianBlur stdDeviation="3.6" result="blur"/>
      <feFlood flood-color="#ffe64d" flood-opacity=".92" result="color"/>
      <feComposite in="color" in2="blur" operator="in" result="glow"/>
      <feMerge><feMergeNode in="glow"/><feMergeNode in="SourceGraphic"/></feMerge>
    </filter>

    <style>
      #boss-hud, #boss-frame, #boss-health-current, #boss-damage-flash {
        transform-box: fill-box;
        transform-origin: center;
      }
      #boss-hud.taking-damage #boss-damage-flash { animation: damage-flash .64s ease-out both; }
      #boss-hud.taking-damage #boss-frame { animation: hit-shake .20s ease-out; }
      #boss-hud.critical #boss-health-current { animation: critical-pulse 1.05s ease-in-out infinite; }
      #boss-hud.defeated #boss-frame { opacity: .42; filter: saturate(.15); }
      #boss-hud.defeated #boss-health-current { opacity: 0; }
      @keyframes damage-flash {
        0% { opacity: 1; }
        25% { opacity: 1; }
        62% { opacity: .58; }
        100% { opacity: 0; }
      }
      @keyframes hit-shake {
        0%, 100% { transform: translateX(0); }
        30% { transform: translateX(-2px); }
        64% { transform: translateX(1.5px); }
      }
      @keyframes critical-pulse {
        0%, 100% { filter: url(#red-glow); opacity: .78; }
        50% { filter: url(#red-glow); opacity: 1; }
      }
      @media (prefers-reduced-motion: reduce) {
        #boss-hud.taking-damage #boss-frame,
        #boss-hud.critical #boss-health-current { animation: none; }
      }
    </style>
  </defs>

  <g id="boss-hud" aria-label="Vida de Testigo Acusador">
    <g id="boss-frame" filter="url(#frame-shadow)">
      <path d="M22 16 L44 9 L111 12 L139 16 H341 L369 12 L436 9 L458 16 L450 32 L462 45 L438 55 L369 51 L340 48 H140 L111 51 L42 55 L18 45 L30 32Z"
            fill="#030202" stroke="#010101" stroke-width="6"/>
      <path d="M31 18 L48 14 L110 17 L139 21 H341 L370 17 L432 14 L449 18 L441 32 L452 43 L434 49 L370 47 L341 43 H139 L110 47 L46 49 L28 43 L39 32Z"
            fill="url(#forged)" stroke="#170906" stroke-width="3"/>
      <path d="M39 21 L52 18 H428 L441 21 L434 32 L443 46 H37 L46 32Z"
            fill="#060404" stroke="#6f3e27" stroke-width="2"/>

      <g fill="none" stroke-linecap="round" stroke-linejoin="round">
        <path d="M27 17 C59 5 88 11 113 15 C149 20 179 15 213 18"
              stroke="#0a0403" stroke-width="9"/>
        <path d="M27 17 C59 5 88 11 113 15 C149 20 179 15 213 18"
              stroke="url(#copper)" stroke-width="4.5"/>
        <path d="M453 17 C421 5 392 11 367 15 C331 20 301 15 267 18"
              stroke="#0a0403" stroke-width="9"/>
        <path d="M453 17 C421 5 392 11 367 15 C331 20 301 15 267 18"
              stroke="url(#copper)" stroke-width="4.5"/>
        <path d="M29 48 C59 59 87 53 113 49 M451 48 C421 59 393 53 367 49"
              stroke="#0a0403" stroke-width="7"/>
        <path d="M29 48 C59 59 87 53 113 49 M451 48 C421 59 393 53 367 49"
              stroke="url(#copper)" stroke-width="3.5"/>
      </g>

      <g fill="url(#copper)" stroke="#120604" stroke-width="2.5" stroke-linejoin="round">
        <path d="M38 18 L13 23 L25 32 L10 43 L38 48 L51 32Z"/>
        <path d="M442 18 L467 23 L455 32 L470 43 L442 48 L429 32Z"/>
      </g>
    </g>

    <g id="boss-health-track" clip-path="url(#boss-health-window)">
      <rect id="boss-damage-fill" x="43" y="20" width="394" height="25" fill="url(#damage-black)"/>
      <path d="M49 25 H431" stroke="#32201a" stroke-width="1.4" opacity=".46"/>
      <path d="M49 42 H431" stroke="#000" stroke-width="4" opacity=".92"/>
    </g>

    <g id="boss-health-current" clip-path="url(#boss-current-health-window)" filter="url(#red-glow)">
      <rect id="boss-health-red" x="43" y="20" width="394" height="25" fill="url(#health-red)"/>
      <rect id="boss-health-highlight" x="43" y="20" width="394" height="25" fill="url(#health-gloss)"/>
      <path d="M49 25 H431" stroke="#ff967d" stroke-width="1.4" opacity=".34"/>
    </g>

    <rect id="boss-damage-flash" x="319" y="20" width="47" height="25" rx="2"
          fill="url(#hit-yellow)" opacity="0" clip-path="url(#boss-health-window)"
          filter="url(#hit-glow)">
      <animate id="boss-damage-flash-animation"
               attributeName="opacity"
               values="0;1;1;.58;0"
               keyTimes="0;.08;.30;.66;1"
               dur=".64s"
               begin="indefinite"
               fill="remove"/>
    </rect>

    <rect x="40" y="17" width="400" height="31" rx="12"
          fill="none" stroke="#010101" stroke-width="6" pointer-events="none"/>
    <rect x="43" y="20" width="394" height="25" rx="9"
          fill="none" stroke="#82482c" stroke-width="2" opacity=".76" pointer-events="none"/>

    <g id="boss-phase-marks" fill="url(#copper)" stroke="#100503" stroke-width="1.8">
      <path d="M141 15 L147 21 L141 28 L135 21Z"/>
      <path d="M339 15 L345 21 L339 28 L333 21Z"/>
    </g>

    <!-- Dibujado al final: el centro queda siempre sobre la vida y el marco -->
    <g id="boss-center-marker" pointer-events="none">
      <path d="M240 3 L252 15 L240 35 L228 15Z"
            fill="url(#copper)" stroke="#100503" stroke-width="3"/>
      <path d="M240 9 L247 16 L240 28 L233 16Z"
            fill="url(#marker-gem)" stroke="#d15a40" stroke-width="1.4" filter="url(#red-glow)"/>
      <path d="M235 16 H245" stroke="#f1a16e" stroke-width="1" opacity=".44"/>
    </g>
  </g>
</svg>
